<?xml version="1.0" encoding="UTF-8" standalone="no"?>
<svg width="237px" height="237px" viewBox="0 0 237 237" version="1.1" xmlns="http://www.w3.org/2000/svg" xmlns:xlink="http://www.w3.org/1999/xlink" style="background: #FFFFFF;">
    <!-- Generator: Sketch 3.7.1 (28215) - http://www.bohemiancoding.com/sketch -->
    <title>Artboard 1</title>
    <desc>Created with Sketch.</desc>
    <defs>
        <polygon id="path-1" points="0 0.0009 0 236.8319 236.8318 236.8319 236.8318 0.0009 2.71050543e-20 0.0009"></polygon>
    </defs>
    <g id="Page-1" stroke="none" stroke-width="1" fill="none" fill-rule="evenodd">
        <g id="Artboard-1">
            <g id="Page-1">
                <mask id="mask-2" fill="white">
                    <use xlink:href="#path-1"></use>
                </mask>
                <g id="Clip-4"></g>
                <path d="M118.4158,8.6969 C57.9138,8.6969 8.6968,57.9179 8.6968,118.4159 C8.6968,178.9149 57.9138,228.1359 118.4158,228.1359 C178.9178,228.1359 228.1348,178.9149 228.1348,118.4159 C228.1348,57.9179 178.9178,8.6969 118.4158,8.6969 M118.4158,236.8319 C53.1188,236.8319 -0.0002,183.7109 -0.0002,118.4159 C-0.0002,53.1219 53.1188,0.0009 118.4158,0.0009 C183.7128,0.0009 236.8318,53.1219 236.8318,118.4159 C236.8318,183.7109 183.7128,236.8319 118.4158,236.8319" id="Fill-3" fill="#DBD9DA" mask="url(#mask-2)"></path>
                <path d="M190.9826,208.2967 C188.5816,208.2967 186.6346,206.3487 186.6346,203.9487 L186.6346,181.9387 C186.6346,163.0197 171.2456,147.6277 152.3296,147.6277 L138.4806,147.6277 C136.1486,147.6277 134.1046,146.0687 133.5156,143.8317 C132.9216,141.5787 133.9286,139.1917 135.9786,138.0257 C146.5036,132.0387 153.0376,120.9107 153.0376,108.9807 L153.0376,89.6687 C153.0376,72.4287 141.3176,57.2917 125.7756,54.4557 C115.8846,52.6487 105.8066,55.2737 98.1526,61.6597 C90.4576,68.0777 86.0476,77.4507 86.0476,87.3787 L86.0476,108.9807 C86.0476,120.9077 92.5866,132.0387 103.1116,138.0257 C105.1616,139.2037 106.1696,141.5927 105.5696,143.8407 C104.9746,146.0707 102.9366,147.6277 100.6036,147.6277 L86.7606,147.6277 C67.8446,147.6277 52.4506,163.0197 52.4506,181.9387 L52.4506,203.9487 C52.4506,206.3487 50.5026,208.2967 48.1026,208.2967 C45.7016,208.2967 43.7546,206.3487 43.7546,203.9487 L43.7546,181.9387 C43.7546,158.2237 63.0496,138.9317 86.7606,138.9317 L89.9996,138.9317 C82.0276,131.0957 77.3506,120.3297 77.3506,108.9807 L77.3506,87.3787 C77.3506,74.8627 82.9056,63.0557 92.5816,54.9817 C102.2236,46.9367 114.8826,43.6327 127.3386,45.9007 C146.9456,49.4787 161.7336,68.2927 161.7336,89.6687 L161.7336,108.9807 C161.7336,120.3267 157.0576,131.0957 149.0856,138.9317 L152.3296,138.9317 C176.0416,138.9317 195.3306,158.2237 195.3306,181.9387 L195.3306,203.9487 C195.3306,206.3487 193.3836,208.2967 190.9826,208.2967" id="Fill-1" fill="#DBD9DA" mask="url(#mask-2)"></path>
            </g>
        </g>
    </g>
</svg>